<svg width="128" height="128" viewBox="0 0 128 128" fill="none" xmlns="http://www.w3.org/2000/svg">
<path d="M128 64C128 28.6538 99.3462 0 64 0C28.6538 0 0 28.6538 0 64C0 99.3462 28.6538 128 64 128C99.3462 128 128 99.3462 128 64Z" fill="#F9C4BC"/>
<path d="M88.748 81.9628C87.4006 78.7712 85.4452 75.872 82.9908 73.427C80.544 70.975 77.6454 69.02 74.455 67.67C74.4266 67.6556 74.398 67.6484 74.3694 67.6342C78.8194 64.42 81.7122 59.1842 81.7122 53.277C81.7122 43.4914 73.7836 35.5628 63.998 35.5628C54.2122 35.5628 46.2836 43.4914 46.2836 53.277C46.2836 59.1842 49.1766 64.42 53.6266 67.6414C53.598 67.6556 53.5694 67.6628 53.5408 67.677C50.3408 69.027 47.4694 70.9628 45.005 73.4342C42.553 75.8812 40.598 78.7798 39.248 81.97C37.9216 85.0932 37.2064 88.4416 37.1408 91.8342C37.1388 91.9104 37.1522 91.9862 37.1802 92.0572C37.208 92.1282 37.2498 92.193 37.303 92.2476C37.3562 92.3022 37.42 92.3454 37.4902 92.3752C37.5604 92.4048 37.636 92.42 37.7122 92.42H41.998C42.3122 92.42 42.5622 92.17 42.5694 91.8628C42.7122 86.3484 44.9266 81.1842 48.8408 77.27C52.8908 73.22 58.2694 70.9914 63.998 70.9914C69.7266 70.9914 75.105 73.22 79.155 77.27C83.0694 81.1842 85.2836 86.3484 85.4266 91.8628C85.4336 92.177 85.6836 92.42 85.998 92.42H90.2836C90.36 92.42 90.4354 92.4048 90.5056 92.3752C90.576 92.3454 90.6396 92.3022 90.6928 92.2476C90.7462 92.193 90.788 92.1282 90.8158 92.0572C90.8436 91.9862 90.857 91.9104 90.855 91.8342C90.7836 88.42 90.0766 85.0984 88.748 81.9628ZM63.998 65.5628C60.7194 65.5628 57.6336 64.2842 55.3122 61.9628C52.9908 59.6414 51.7122 56.5556 51.7122 53.277C51.7122 49.9984 52.9908 46.9128 55.3122 44.5914C57.6336 42.27 60.7194 40.9914 63.998 40.9914C67.2766 40.9914 70.3622 42.27 72.6836 44.5914C75.005 46.9128 76.2836 49.9984 76.2836 53.277C76.2836 56.5556 75.005 59.6414 72.6836 61.9628C70.3622 64.2842 67.2766 65.5628 63.998 65.5628Z" fill="white"/>
</svg>
