<svg width="24" height="23" viewBox="0 0 24 23" fill="none" xmlns="http://www.w3.org/2000/svg">
<path d="M13.6343 9.56247C13.0156 9.56247 12.5361 10.0419 12.5361 10.6339C12.5361 11.2259 13.0156 11.7053 13.6343 11.7053C14.1995 11.7053 14.679 11.2259 14.679 10.6339C14.679 10.0419 14.1995 9.56247 13.6343 9.56247ZM6.13432 9.56247C5.51556 9.56247 5.0361 10.0419 5.0361 10.6339C5.0361 11.2259 5.51556 11.7053 6.13432 11.7053C6.69952 11.7053 7.17899 11.2259 7.17899 10.6339C7.17899 10.0419 6.69952 9.56247 6.13432 9.56247Z" fill="#54B8B5"/>
<path d="M22.2318 7.52467C20.9925 5.81877 19.2055 4.58964 17.1693 4.04249V4.04517C16.7113 3.53624 16.1943 3.06749 15.6157 2.64963C11.2309 -0.537864 5.07553 0.434458 1.87464 4.81928C-0.704821 8.3818 -0.595001 13.1737 2.03536 16.5782L2.05679 20.13C2.05679 20.2157 2.07018 20.3014 2.09697 20.3818C2.13065 20.4891 2.18518 20.5887 2.25741 20.675C2.32965 20.7613 2.41819 20.8324 2.51795 20.8844C2.61771 20.9364 2.72674 20.9682 2.83881 20.978C2.95088 20.9879 3.06379 20.9755 3.17107 20.9416L6.56214 19.8729C7.45947 20.1916 8.38627 20.3737 9.30767 20.4247L9.29426 20.4353C11.6809 22.1737 14.8095 22.6961 17.6782 21.7479L21.0827 22.8568C21.1684 22.8835 21.2568 22.8997 21.3479 22.8997C21.8219 22.8997 22.205 22.5166 22.205 22.0425V18.4532C24.5648 15.2497 24.6264 10.8219 22.2318 7.52467ZM6.93713 17.9711L6.61571 17.8371L3.96393 18.6675L3.93714 15.8818L3.72286 15.6407C1.45679 12.8764 1.30679 8.8934 3.42821 5.97107C6.01036 2.42999 10.9603 1.64785 14.4907 4.20321C18.0318 6.77733 18.8166 11.7193 16.2586 15.2389C14.1131 18.1827 10.2719 19.2702 6.93713 17.9711ZM20.4639 17.5157L20.2497 17.7835L20.2764 20.5693L17.6514 19.6853L17.33 19.8193C15.83 20.3764 14.2309 20.4219 12.7497 20.0068L12.7443 20.0041C14.7801 19.3798 16.5584 18.1119 17.8121 16.3907C19.8586 13.5702 20.1907 10.0264 19.0014 7.005L19.0175 7.01573C19.6336 7.45767 20.1987 8.00947 20.6782 8.6764C22.6229 11.3443 22.5131 14.9764 20.4639 17.5157Z" fill="#54B8B5"/>
<path d="M9.88433 9.56247C9.2656 9.56247 8.78613 10.0419 8.78613 10.6339C8.78613 11.2259 9.2656 11.7053 9.88433 11.7053C10.4495 11.7053 10.929 11.2259 10.929 10.6339C10.929 10.0419 10.4495 9.56247 9.88433 9.56247Z" fill="#54B8B5"/>
</svg>
