<svg width="18" height="18" viewBox="0 0 18 18" fill="none" xmlns="http://www.w3.org/2000/svg">
<g clip-path="url(#clip0_13_223)">
<path d="M14.6256 6.2363H2.87129L9.90655 0.12915C10.019 0.0307153 9.95075 -0.1521 9.8021 -0.1521H8.0242C7.94585 -0.1521 7.8715 -0.123975 7.81325 -0.0737497L0.22151 6.51355C0.15198 6.5738 0.096215 6.6483 0.058 6.732C0.01978 6.8157 0 6.90665 0 6.9987C0 7.0907 0.01978 7.18165 0.058 7.26535C0.096215 7.34905 0.15198 7.42355 0.22151 7.48385L7.85745 14.1113C7.8876 14.1374 7.92375 14.1514 7.9619 14.1514H9.8001C9.94875 14.1514 10.017 13.9667 9.90455 13.8702L2.87129 7.7631H14.6256C14.7139 7.7631 14.7863 7.69075 14.7863 7.60235V6.397C14.7863 6.3086 14.7139 6.2363 14.6256 6.2363Z" fill="white" fill-opacity="0.85"/>
</g>
<defs>
<clipPath id="clip0_13_223">
<rect width="18" height="18" fill="white"/>
</clipPath>
</defs>
</svg>
