<svg width="24" height="24" viewBox="0 0 24 24" fill="none" xmlns="http://www.w3.org/2000/svg">
<path d="M20.5715 10.7177H18.7501V4.71764C18.7501 2.82389 17.2153 1.28906 15.3215 1.28906H8.67867C6.78494 1.28906 5.25011 2.82389 5.25011 4.71764V10.7177H3.42868C2.95457 10.7177 2.57153 11.1007 2.57153 11.5748V21.8605C2.57153 22.3346 2.95457 22.7177 3.42868 22.7177H20.5715C21.0457 22.7177 21.4287 22.3346 21.4287 21.8605V11.5748C21.4287 11.1007 21.0457 10.7177 20.5715 10.7177ZM7.17867 4.71764C7.17867 3.88996 7.85101 3.21764 8.67867 3.21764H15.3215C16.1492 3.21764 16.8215 3.88996 16.8215 4.71764V10.7177H7.17867V4.71764ZM19.5001 20.7891H4.50011V12.6462H19.5001V20.7891ZM11.2501 17.0659V18.4855C11.2501 18.6033 11.3465 18.6998 11.4644 18.6998H12.5358C12.6537 18.6998 12.7501 18.6033 12.7501 18.4855V17.0659C12.9712 16.9071 13.1363 16.6823 13.2215 16.4238C13.3067 16.1653 13.3077 15.8864 13.2243 15.6273C13.1409 15.3682 12.9774 15.1422 12.7575 14.9819C12.5375 14.8216 12.2723 14.7353 12.0001 14.7353C11.7279 14.7353 11.4627 14.8216 11.2427 14.9819C11.0228 15.1422 10.8593 15.3682 10.7759 15.6273C10.6925 15.8864 10.6935 16.1653 10.7787 16.4238C10.8639 16.6823 11.029 16.9071 11.2501 17.0659Z" fill="black" fill-opacity="0.85"/>
</svg>
