<svg width="24" height="24" viewBox="0 0 24 24" fill="none" xmlns="http://www.w3.org/2000/svg">
<path d="M22.0791 18.5699H20.638C20.5255 18.5699 20.4317 18.6636 20.4317 18.7761V20.4315H3.56476V3.56183H20.4344V5.21718C20.4344 5.32968 20.5281 5.42344 20.6407 5.42344H22.0817C22.1942 5.42344 22.288 5.33236 22.288 5.21718V2.53326C22.288 2.0779 21.921 1.71094 21.4657 1.71094H2.53619C2.08083 1.71094 1.71387 2.0779 1.71387 2.53326V21.4601C1.71387 21.9154 2.08083 22.2824 2.53619 22.2824H21.463C21.9183 22.2824 22.2853 21.9154 22.2853 21.4601V18.7761C22.2853 18.6609 22.1915 18.5699 22.0791 18.5699ZM22.5773 11.8279L18.7764 8.82793C18.6344 8.7154 18.4281 8.8172 18.4281 8.99666V11.0324H10.0175C9.8996 11.0324 9.80313 11.1288 9.80313 11.2467V12.7467C9.80313 12.8645 9.8996 12.9609 10.0175 12.9609H18.4281V14.9967C18.4281 15.1761 18.6371 15.2779 18.7764 15.1654L22.5773 12.1654C22.6029 12.1453 22.6236 12.1197 22.6379 12.0905C22.6521 12.0613 22.6595 12.0292 22.6595 11.9967C22.6595 11.9641 22.6521 11.9321 22.6379 11.9028C22.6236 11.8735 22.6029 11.8479 22.5773 11.8279Z" fill="#D9D9D9"/>
</svg>
