<svg width="24" height="24" viewBox="0 0 24 24" fill="none" xmlns="http://www.w3.org/2000/svg">
<g clip-path="url(#clip0_102_329)">
<path d="M23.2348 11.6536L0.828561 0.41966C0.737487 0.374124 0.633025 0.36341 0.533918 0.387517C0.423923 0.414709 0.329185 0.484379 0.270448 0.581271C0.21171 0.67816 0.193759 0.79438 0.220525 0.90448L2.52945 10.3384C2.56427 10.4804 2.66874 10.5955 2.80803 10.6411L6.76431 11.9991L2.8107 13.3571C2.67142 13.4054 2.56695 13.5179 2.53481 13.6599L0.220525 23.1071C0.196418 23.2063 0.207132 23.3107 0.252668 23.3991C0.357132 23.6107 0.614275 23.6965 0.828561 23.592L23.2348 12.4223C23.3178 12.3821 23.3848 12.3125 23.4276 12.2321C23.5321 12.0179 23.4464 11.7607 23.2348 11.6536ZM2.86159 20.4232L4.20892 14.9161L12.116 12.2027C12.1776 12.1813 12.2286 12.1331 12.25 12.0688C12.2875 11.9563 12.2286 11.8357 12.116 11.7955L4.20892 9.08487L2.86695 3.59913L19.6884 12.0339L2.86159 20.4232Z" fill="#54B8B5"/>
</g>
<defs>
<clipPath id="clip0_102_329">
<rect width="24" height="24" fill="white"/>
</clipPath>
</defs>
</svg>
