<svg width="24" height="24" viewBox="0 0 24 24" fill="none" xmlns="http://www.w3.org/2000/svg">
<g clip-path="url(#clip0_102_322)">
<path d="M23.0569 15.0495L21.3024 13.5495C21.3855 13.0406 21.4283 12.521 21.4283 12.0013C21.4283 11.4817 21.3855 10.9621 21.3024 10.4531L23.0569 8.95313C23.1892 8.83987 23.2839 8.68893 23.3284 8.52053C23.3729 8.35213 23.3651 8.17413 23.306 8.01027L23.2819 7.9406C22.7989 6.59069 22.0756 5.33929 21.1471 4.24687L21.0988 4.19063C20.9862 4.05817 20.8361 3.96297 20.6682 3.91754C20.5004 3.87211 20.3227 3.87861 20.1587 3.93616L17.981 4.71027C17.1774 4.05134 16.2801 3.53169 15.3105 3.16741L14.8899 0.890627C14.8582 0.719307 14.7751 0.561703 14.6516 0.438744C14.5282 0.315785 14.3703 0.233295 14.1988 0.202232L14.1265 0.188839C12.731 -0.0629464 11.2631 -0.0629464 9.86759 0.188839L9.79526 0.202232C9.62379 0.233295 9.46586 0.315785 9.34246 0.438744C9.21899 0.561703 9.13592 0.719307 9.10419 0.890627L8.68099 3.17813C7.71906 3.54249 6.82326 4.06185 6.02918 4.71563L3.83543 3.93616C3.6714 3.87815 3.49362 3.87142 3.32568 3.91687C3.15775 3.96233 3.00762 4.05781 2.89525 4.19063L2.84704 4.24687C1.91957 5.34007 1.19644 6.59126 0.71221 7.9406L0.688103 8.01027C0.56757 8.34507 0.666677 8.72007 0.93721 8.95313L2.7131 10.4692C2.63007 10.9728 2.58989 11.4871 2.58989 11.9987C2.58989 12.5129 2.63007 13.0272 2.7131 13.5281L0.93721 15.0442C0.804877 15.1575 0.71017 15.3084 0.66567 15.4768C0.621172 15.6452 0.628997 15.8232 0.688103 15.9871L0.71221 16.0567C1.19704 17.4067 1.91489 18.6522 2.84704 19.7505L2.89525 19.8067C3.0079 19.9391 3.15803 20.0343 3.32586 20.0798C3.4937 20.1252 3.67136 20.1187 3.83543 20.0611L6.02918 19.2817C6.82739 19.9379 7.71932 20.4576 8.68099 20.8192L9.10419 23.1067C9.13592 23.278 9.21899 23.4356 9.34246 23.5586C9.46586 23.6815 9.62379 23.764 9.79526 23.7951L9.86759 23.8085C11.2759 24.0616 12.7181 24.0616 14.1265 23.8085L14.1988 23.7951C14.3703 23.764 14.5282 23.6815 14.6516 23.5586C14.7751 23.4356 14.8582 23.278 14.8899 23.1067L15.3105 20.8299C16.2797 20.4666 17.1821 19.9453 17.981 19.2871L20.1587 20.0611C20.3227 20.1192 20.5005 20.1259 20.6684 20.0805C20.8363 20.035 20.9865 19.9395 21.0988 19.8067L21.1471 19.7505C22.0792 18.6495 22.7971 17.4067 23.2819 16.0567L23.306 15.9871C23.4265 15.6576 23.3274 15.2826 23.0569 15.0495ZM19.4006 10.7692C19.4676 11.1737 19.5024 11.5889 19.5024 12.004C19.5024 12.4192 19.4676 12.8344 19.4006 13.2389L19.2238 14.3129L21.2247 16.0245C20.9214 16.7233 20.5385 17.3849 20.0837 17.996L17.5979 17.1147L16.7569 17.8058C16.1167 18.3308 15.4042 18.7433 14.6327 19.0326L13.6122 19.4156L13.1327 22.0139C12.3763 22.0995 11.6125 22.0995 10.856 22.0139L10.3765 19.4103L9.36399 19.0219C8.60059 18.7326 7.89079 18.3201 7.25599 17.7978L6.41489 17.104L3.9131 17.9933C3.45775 17.3799 3.07739 16.7183 2.77204 16.0219L4.79436 14.2942L4.62025 13.2228C4.55596 12.8237 4.52114 12.4111 4.52114 12.004C4.52114 11.5942 4.55328 11.1844 4.62025 10.7853L4.79436 9.71387L2.77204 7.98613C3.07471 7.28707 3.45775 6.62813 3.9131 6.01473L6.41489 6.904L7.25599 6.21027C7.89079 5.68795 8.60059 5.27545 9.36399 4.98616L10.3792 4.60313L10.8587 1.99955C11.6113 1.91384 12.3801 1.91384 13.1355 1.99955L13.6149 4.59777L14.6355 4.98081C15.4042 5.27009 16.1193 5.68259 16.7595 6.20759L17.6006 6.89867L20.0863 6.01741C20.5417 6.63081 20.9221 7.2924 21.2274 7.98887L19.2265 9.70047L19.4006 10.7692ZM11.9997 7.02187C9.39612 7.02187 7.28546 9.1326 7.28546 11.7361C7.28546 14.3397 9.39612 16.4505 11.9997 16.4505C14.6033 16.4505 16.714 14.3397 16.714 11.7361C16.714 9.1326 14.6033 7.02187 11.9997 7.02187ZM14.1211 13.8576C13.8429 14.1367 13.5123 14.3579 13.1481 14.5087C12.7841 14.6595 12.3938 14.7368 11.9997 14.7361C11.1988 14.7361 10.4461 14.4228 9.87826 13.8576C9.59926 13.5793 9.37799 13.2487 9.22719 12.8846C9.07639 12.5205 8.99912 12.1302 8.99972 11.7361C8.99972 10.9353 9.31312 10.1826 9.87826 9.61473C10.4461 9.04687 11.1988 8.73613 11.9997 8.73613C12.8006 8.73613 13.5533 9.04687 14.1211 9.61473C14.4002 9.893 14.6215 10.2237 14.7723 10.5877C14.923 10.9518 15.0003 11.3421 14.9997 11.7361C14.9997 12.5371 14.6863 13.2897 14.1211 13.8576Z" fill="#D9D9D9"/>
</g>
<defs>
<clipPath id="clip0_102_322">
<rect width="24" height="24" fill="white"/>
</clipPath>
</defs>
</svg>
