<svg width="24" height="24" viewBox="0 0 24 24" fill="none" xmlns="http://www.w3.org/2000/svg">
<path d="M21.2805 18.7359C20.7753 17.5391 20.042 16.4519 19.1216 15.5351C18.204 14.6155 17.117 13.8824 15.9207 13.3761C15.91 13.3707 15.8993 13.3681 15.8885 13.3627C17.5573 12.1574 18.6421 10.194 18.6421 7.9788C18.6421 4.30915 15.6689 1.33594 11.9993 1.33594C8.32959 1.33594 5.35641 4.30915 5.35641 7.9788C5.35641 10.194 6.44123 12.1574 8.10999 13.3654C8.09926 13.3707 8.08853 13.3735 8.07786 13.3788C6.87786 13.8851 5.80104 14.6109 4.87694 15.5377C3.95741 16.4553 3.22427 17.5423 2.71801 18.7386C2.22066 19.9098 1.95242 21.1655 1.92783 22.4377C1.92712 22.4663 1.93213 22.4947 1.94258 22.5214C1.95303 22.548 1.9687 22.5723 1.98867 22.5927C2.00864 22.6132 2.0325 22.6295 2.05886 22.6405C2.08521 22.6517 2.11352 22.6574 2.14212 22.6574H3.74926C3.86712 22.6574 3.96087 22.5636 3.96355 22.4485C4.01712 20.3806 4.84748 18.444 6.31533 16.9761C7.83406 15.4574 9.85106 14.6217 11.9993 14.6217C14.1475 14.6217 16.1645 15.4574 17.6832 16.9761C19.1511 18.444 19.9814 20.3806 20.035 22.4485C20.0377 22.5663 20.1314 22.6574 20.2493 22.6574H21.8564C21.885 22.6574 21.9133 22.6517 21.9397 22.6405C21.966 22.6295 21.9899 22.6132 22.0099 22.5927C22.0298 22.5723 22.0455 22.548 22.0559 22.5214C22.0664 22.4947 22.0714 22.4663 22.0707 22.4377C22.0439 21.1574 21.7787 19.9119 21.2805 18.7359ZM11.9993 12.5859C10.7698 12.5859 9.61266 12.1065 8.74213 11.2359C7.87159 10.3654 7.39213 9.20826 7.39213 7.9788C7.39213 6.74933 7.87159 5.59218 8.74213 4.72165C9.61266 3.85111 10.7698 3.37165 11.9993 3.37165C13.2287 3.37165 14.3859 3.85111 15.2564 4.72165C16.1269 5.59218 16.6064 6.74933 16.6064 7.9788C16.6064 9.20826 16.1269 10.3654 15.2564 11.2359C14.3859 12.1065 13.2287 12.5859 11.9993 12.5859Z" fill="black" fill-opacity="0.85"/>
</svg>
