<?xml version="1.0" standalone="no"?>
<!DOCTYPE svg PUBLIC "-//W3C//DTD SVG 20010904//EN"
 "http://www.w3.org/TR/2001/REC-SVG-20010904/DTD/svg10.dtd">
<svg version="1.0" xmlns="http://www.w3.org/2000/svg"
 width="700.000000pt" height="700.000000pt" viewBox="0 0 700.000000 700.000000"
 preserveAspectRatio="xMidYMid meet">
<metadata>
Created by potrace 1.14, written by Peter Selinger 2001-2017
</metadata>
<g transform="translate(0.000000,700.000000) scale(0.100000,-0.100000)"
fill="#000000" stroke="none">
<path d="M3278 6996 c-1 -2 -39 -6 -83 -10 -477 -37 -997 -199 -1423 -443 -88
-50 -303 -188 -341 -219 -9 -7 -52 -41 -96 -75 -426 -331 -813 -825 -1020
-1299 -25 -58 -50 -114 -55 -125 -45 -93 -150 -427 -176 -560 -2 -11 -10 -54
-19 -95 -29 -147 -36 -199 -52 -370 -15 -164 -8 -592 12 -711 2 -13 6 -46 9
-74 21 -182 109 -547 165 -680 5 -11 25 -65 46 -120 63 -166 249 -531 312
-610 4 -6 34 -49 65 -95 101 -151 251 -330 418 -498 308 -309 723 -584 1130
-749 168 -67 358 -132 437 -148 10 -2 56 -12 103 -24 109 -26 200 -43 299 -57
25 -3 57 -8 71 -10 163 -25 682 -25 842 1 13 2 46 7 73 10 72 10 86 12 120 19
17 3 44 8 60 11 343 65 740 212 1039 384 49 28 93 51 97 51 5 0 9 5 9 10 0 6
5 10 10 10 15 0 220 141 330 227 152 118 324 280 450 422 36 41 70 79 75 85
62 67 240 317 320 450 179 298 346 717 411 1031 16 79 54 301 59 350 4 33 9
71 11 85 9 46 11 524 4 605 -15 153 -21 210 -25 225 -2 8 -7 35 -10 60 -17
129 -80 384 -136 552 -349 1038 -1173 1862 -2209 2207 -174 58 -415 118 -550
136 -19 3 -46 7 -60 10 -13 2 -54 7 -90 11 -36 3 -76 8 -90 11 -27 5 -536 14
-542 9z m522 -359 c14 -3 52 -8 84 -11 77 -7 119 -14 301 -50 133 -26 388
-109 550 -178 380 -162 702 -382 1000 -682 305 -307 537 -661 695 -1061 60
-151 131 -381 146 -475 2 -14 9 -45 14 -70 18 -87 34 -194 47 -315 10 -97 10
-483 1 -580 -13 -123 -30 -238 -54 -355 -9 -41 -17 -84 -20 -95 -9 -47 -79
-276 -106 -349 -196 -535 -548 -1022 -998 -1381 -409 -326 -915 -553 -1425
-639 -208 -35 -288 -41 -535 -41 -204 0 -370 11 -470 30 -14 3 -43 7 -65 11
-90 13 -311 67 -437 108 -885 287 -1604 959 -1953 1826 -76 188 -157 474 -179
635 -4 22 -8 51 -11 65 -20 99 -30 265 -30 475 1 185 4 260 20 395 7 64 36
224 56 310 12 47 22 92 24 100 45 192 160 480 283 705 98 178 259 409 392 560
70 79 267 272 350 341 488 409 1110 668 1725 719 38 3 71 8 74 10 5 6 491 -2
521 -8z"/>
<path d="M2830 6051 c-262 -59 -469 -256 -545 -518 -88 -303 18 -618 272 -809
93 -70 195 -112 323 -132 97 -15 261 -7 340 17 215 66 373 202 462 398 16 37
31 74 33 82 33 146 37 172 32 261 -6 106 -10 132 -34 205 -58 182 -198 346
-367 432 -147 74 -356 100 -516 64z"/>
<path d="M4750 5562 c-105 -15 -245 -70 -330 -131 -235 -168 -340 -485 -267
-808 56 -246 249 -441 507 -513 271 -75 509 -24 704 150 53 47 147 172 182
243 140 278 78 623 -156 858 -102 103 -210 161 -355 191 -50 10 -238 17 -285
10z"/>
<path d="M1397 4804 c-1 -1 -21 -4 -44 -7 -313 -43 -568 -290 -629 -609 -12
-65 -11 -198 3 -270 24 -130 65 -222 145 -324 318 -410 957 -375 1219 67 45
76 92 211 106 306 33 217 -46 447 -212 618 -140 145 -303 215 -508 219 -43 1
-79 1 -80 0z"/>
<path d="M3340 4123 c-219 -33 -440 -173 -566 -359 -40 -59 -79 -143 -113
-243 -58 -171 -115 -264 -229 -374 -91 -88 -182 -141 -337 -197 -134 -48 -244
-107 -324 -175 -84 -71 -178 -193 -216 -280 -9 -22 -21 -48 -25 -57 -25 -46
-48 -212 -45 -308 16 -411 275 -718 668 -795 87 -17 264 -16 337 1 32 7 86 16
121 20 274 31 476 -36 689 -229 130 -118 277 -191 439 -217 66 -11 196 -14
241 -6 14 3 41 7 60 10 269 41 518 252 610 517 98 283 30 652 -155 846 -128
133 -216 302 -242 462 -18 110 -8 320 21 432 18 69 14 258 -8 339 -79 296
-346 538 -671 606 -35 7 -219 12 -255 7z"/>
<path d="M5407 3689 c-204 -49 -386 -177 -481 -339 -99 -169 -128 -414 -72
-615 116 -417 586 -642 991 -473 166 69 357 255 405 394 52 149 78 356 57 454
-29 134 -91 250 -187 349 -205 211 -454 291 -713 230z"/>
</g>
</svg>
