<svg width="185" height="160" viewBox="0 0 185 160" fill="none" xmlns="http://www.w3.org/2000/svg">
<path fill-rule="evenodd" clip-rule="evenodd" d="M54.9239 55.9763C54.9239 55.9763 48.4413 12.7038 58.5978 7.76844C68.9713 2.72594 85.5422 27.0384 85.5422 27.0384L54.9239 55.9763Z" fill="#D06225"/>
<path d="M61.665 8.41878C60.7779 8.41878 59.9336 8.59439 59.1474 8.97636C52.0215 12.4389 54.1103 40.12 55.851 53.2907L83.8222 26.8547C79.383 20.6176 69.0558 8.41878 61.665 8.41878ZM54.9231 57.3108C54.7797 57.3108 54.635 57.286 54.4955 57.2351C54.0456 57.0721 53.7206 56.6665 53.6478 56.1806C52.9688 51.6501 47.3267 11.77 58.0483 6.56057C69.2757 1.10539 85.8954 25.2393 86.5972 26.2698C86.9718 26.8187 86.8927 27.5705 86.413 28.0237L55.7947 56.9613C55.5525 57.1899 55.2409 57.3108 54.9231 57.3108Z" fill="#1B1529"/>
<path fill-rule="evenodd" clip-rule="evenodd" d="M167.134 55.9763C167.134 55.9763 173.617 12.7038 163.459 7.76844C153.086 2.72594 136.516 27.0384 136.516 27.0384L167.134 55.9763Z" fill="#D06225"/>
<path d="M138.235 26.8547L166.206 53.2907C167.947 40.12 170.036 12.4389 162.91 8.97636C155.564 5.40661 143.208 19.8694 138.235 26.8547ZM167.134 57.3108C166.817 57.3108 166.505 57.1899 166.263 56.9613L135.644 28.0237C135.164 27.5705 135.085 26.8187 135.46 26.2698C136.162 25.2393 152.782 1.10249 164.009 6.56056C174.73 11.77 169.088 51.6501 168.41 56.1805C168.337 56.6665 168.011 57.0721 167.562 57.2351C167.422 57.286 167.278 57.3108 167.134 57.3108Z" fill="#1B1529"/>
<path fill-rule="evenodd" clip-rule="evenodd" d="M54.1595 150.792H168.67C168.67 150.792 169.231 81.8252 168.675 67.3315C168.001 49.7244 158.053 26.1708 135.374 23.551C105.798 20.1342 89.08 22.5013 79.1173 25.6573C69.1559 28.8126 54.2634 38.7585 53.4263 65.6387C52.4777 96.1064 54.1595 150.792 54.1595 150.792Z" fill="white"/>
<path d="M54.1588 152.125C53.4647 152.125 52.8916 151.557 52.8693 150.832C52.8525 150.287 51.1972 95.753 52.1356 65.5962C53.0673 35.7087 71.0502 26.8159 78.739 24.3804C92.1192 20.1424 111.222 19.4173 135.518 22.2243C146.122 23.4496 155.055 29.2786 161.352 39.0825C166.444 47.0093 169.583 57.2864 169.965 67.2789C170.516 81.6396 169.967 150.113 169.961 150.803C169.955 151.534 169.379 152.125 168.67 152.125C168.667 152.125 168.663 152.125 168.659 152.125C167.946 152.119 167.373 151.516 167.379 150.78C167.385 150.09 167.934 81.68 167.386 67.3836C166.667 48.6177 156.298 27.3108 135.231 24.8777C111.288 22.1113 92.5354 22.8033 79.4954 26.9329C72.3376 29.2003 55.5943 37.5158 54.7164 65.6822C53.7804 95.753 55.4337 150.2 55.4505 150.751C55.4728 151.487 54.9131 152.101 54.2009 152.125C54.1866 152.125 54.1727 152.125 54.1588 152.125Z" fill="#1B1529"/>
<path fill-rule="evenodd" clip-rule="evenodd" d="M82.7079 60.4063C82.4502 46.7819 89.7497 43.8673 92.7211 49.9939C95.3683 55.4529 95.2762 69.7106 90.8475 72.6192C86.7124 75.3356 82.8858 69.7397 82.7079 60.4063Z" fill="white"/>
<path d="M83.9992 60.3811C84.1211 66.8168 85.9917 70.706 87.7913 71.7041C88.5359 72.1175 89.3091 72.0484 90.1551 71.4924C93.6772 69.1794 94.0968 55.8093 91.5674 50.5921C90.7336 48.8733 89.5076 48.0343 88.2984 48.3421C86.128 48.8967 83.8571 52.9008 83.9992 60.3811ZM88.7596 74.6392C88.0108 74.6392 87.2716 74.4458 86.5703 74.0567C83.5195 72.3636 81.545 67.1437 81.4172 60.4332C81.2351 50.8229 84.6761 46.5176 87.6786 45.7504C90.1101 45.1314 92.4836 46.5263 93.8753 49.3958C96.5128 54.836 96.8811 70.2379 91.5396 73.7468C90.6357 74.3401 89.6896 74.6392 88.7596 74.6392Z" fill="#1B1529"/>
<path fill-rule="evenodd" clip-rule="evenodd" d="M127.575 60.4063C127.317 46.7819 134.616 43.8673 137.588 49.9939C140.235 55.4529 140.143 69.7106 135.714 72.6192C131.579 75.3356 127.752 69.7397 127.575 60.4063Z" fill="white"/>
<path d="M128.866 60.3811C128.988 66.8168 130.859 70.706 132.658 71.7041C133.403 72.1175 134.176 72.0484 135.022 71.4924C138.544 69.1794 138.963 55.8093 136.434 50.5921C135.601 48.8737 134.38 48.0334 133.165 48.3421C130.995 48.8963 128.725 52.9008 128.866 60.3811ZM133.627 74.6392C132.878 74.6392 132.139 74.4458 131.437 74.0567C128.387 72.3636 126.412 67.1437 126.284 60.4332C126.102 50.8229 129.544 46.5176 132.546 45.7504C134.976 45.1314 137.351 46.5263 138.742 49.3958C141.38 54.836 141.748 70.2379 136.407 73.7468C135.502 74.3401 134.557 74.6392 133.627 74.6392Z" fill="#1B1529"/>
<path d="M83.6549 41.6182C83.4653 41.6182 83.2731 41.5754 83.0919 41.4832C82.4549 41.1615 82.1867 40.3738 82.4928 39.7137C82.5583 39.5717 84.1447 36.239 88.0903 35.7736C91.0936 35.4212 93.7664 37.0284 94.744 39.7774C94.9895 40.4695 94.6464 41.2369 93.9771 41.4907C93.3085 41.7435 92.566 41.3899 92.32 40.6984C91.7528 39.1022 90.2089 38.2084 88.3833 38.4258C85.8871 38.7202 84.8595 40.7889 84.817 40.8764C84.59 41.3453 84.1313 41.6182 83.6549 41.6182Z" fill="#1B1529"/>
<path d="M138.401 41.6252C137.922 41.6252 137.463 41.3493 137.239 40.8752C137.188 40.7697 136.159 38.7191 133.673 38.4258C131.847 38.2079 130.304 39.1022 129.737 40.6984C129.491 41.3899 128.748 41.744 128.08 41.4907C127.41 41.2368 127.067 40.4695 127.313 39.7774C128.29 37.0284 130.963 35.4217 133.966 35.7735C137.912 36.239 139.499 39.5716 139.565 39.7137C139.873 40.3779 139.601 41.1754 138.958 41.4936C138.778 41.5829 138.588 41.6252 138.401 41.6252Z" fill="#1B1529"/>
<path d="M111.028 95.9443C110.327 95.9443 109.752 95.3644 109.737 94.6402L109.524 83.9231C109.51 83.1871 110.075 82.5786 110.788 82.5612C110.797 82.5612 110.807 82.5612 110.815 82.5612C111.516 82.5612 112.091 83.1406 112.105 83.8709L112.319 94.5819C112.334 95.3239 111.768 95.9325 111.055 95.9443C111.046 95.9443 111.037 95.9443 111.028 95.9443Z" fill="#1B1529"/>
<path fill-rule="evenodd" clip-rule="evenodd" d="M89.2087 102.076C89.2087 102.076 85.9132 133.612 92.9116 133.728C99.9126 133.838 105.093 121.423 110.817 121.841C115.984 122.211 121.577 136.452 126.345 133.363C131.112 130.268 129.392 102.441 129.392 102.441C129.392 102.441 122.378 102.876 111.08 93.8807C111.08 93.8807 95.9477 103.392 89.2087 102.076Z" fill="#B02F10"/>
<path fill-rule="evenodd" clip-rule="evenodd" d="M90.9713 100.053C90.9713 100.053 92.0489 107.217 94.1987 107.339C96.3472 107.461 96.4818 100.053 96.4818 100.053H90.9713Z" fill="white"/>
<path d="M92.5318 101.392C92.9872 103.485 93.6721 105.374 94.1909 105.908C94.5954 105.287 94.9755 103.415 95.1265 101.392H92.5318ZM94.2532 108.678C94.2115 108.678 94.1695 108.678 94.1279 108.672C91.3487 108.51 90.1579 103.334 89.6954 100.262C89.6374 99.8739 89.7451 99.4853 89.9906 99.1897C90.2357 98.8941 90.594 98.7202 90.9711 98.7202H96.4816C96.828 98.7202 97.1602 98.8654 97.4032 99.1202C97.6458 99.3753 97.7787 99.7231 97.7724 100.083C97.7463 101.526 97.5277 106.377 95.8198 108.017C95.3674 108.452 94.8284 108.678 94.2532 108.678Z" fill="#1B1529"/>
<path fill-rule="evenodd" clip-rule="evenodd" d="M128.531 100.053C128.531 100.053 127.454 107.217 125.303 107.339C123.155 107.461 123.021 100.053 123.021 100.053H128.531Z" fill="white"/>
<path d="M124.376 101.392C124.526 103.415 124.907 105.287 125.311 105.908C125.832 105.374 126.517 103.485 126.971 101.392H124.376ZM125.25 108.678C124.674 108.678 124.135 108.452 123.682 108.017C121.975 106.377 121.757 101.526 121.73 100.083C121.724 99.7231 121.857 99.3753 122.099 99.1202C122.343 98.8654 122.674 98.7202 123.021 98.7202H128.531C128.908 98.7202 129.267 98.8941 129.512 99.1897C129.757 99.4853 129.865 99.8739 129.807 100.262C129.344 103.334 128.154 108.51 125.376 108.672C125.334 108.678 125.292 108.678 125.25 108.678Z" fill="#1B1529"/>
<path fill-rule="evenodd" clip-rule="evenodd" d="M81.6078 126.593C81.6078 126.593 86.94 110.376 106.61 109.379C125.685 108.411 138.648 117.192 140.45 127.492C140.45 127.492 124.732 142.045 109.846 141.906C94.9631 141.767 81.7243 129.874 81.6078 126.593Z" fill="#FE7D7B"/>
<path d="M81.6077 126.593H81.6132H81.6077ZM82.9364 126.738C83.7159 129.306 95.7052 140.44 109.858 140.573C109.923 140.573 109.99 140.573 110.056 140.573C122.671 140.573 136.148 129.497 139.029 126.993C136.941 118.073 125.376 109.756 106.672 110.712C89.5207 111.582 83.7592 124.617 82.9364 126.738ZM110.058 143.24C109.982 143.24 109.91 143.24 109.835 143.24C94.9698 143.1 80.475 131.091 80.3169 126.645C80.3115 126.483 80.3346 126.321 80.3851 126.165C80.441 125.996 86.2353 109.072 106.546 108.046C127.249 106.997 139.912 116.914 141.721 127.254C141.8 127.712 141.646 128.182 141.311 128.488C140.658 129.091 125.196 143.24 110.058 143.24Z" fill="#1B1529"/>
<path d="M110.524 120.496C110.651 120.496 110.778 120.496 110.906 120.507C113.779 120.716 116.279 123.8 118.926 127.069C121.416 130.14 123.989 133.311 125.66 132.233C128.157 130.61 128.881 116.682 128.173 103.717C125.631 103.45 119.512 102.088 110.991 95.4861C108.01 97.2831 97.1827 103.531 90.558 103.531C90.4929 103.531 90.4285 103.531 90.3646 103.525C89.6562 111.246 88.8396 128.147 92.0384 131.885C92.4152 132.326 92.7137 132.389 92.9315 132.389C92.955 132.389 92.9794 132.389 93.003 132.389C96.0542 132.395 98.9465 129.34 101.744 126.396C104.619 123.365 107.341 120.496 110.524 120.496ZM124.936 135.148C122.109 135.154 119.397 131.804 116.946 128.778C114.864 126.211 112.504 123.301 110.726 123.168C108.567 123 106.148 125.562 103.588 128.262C100.536 131.479 97.0612 135.137 92.892 135.061C91.8396 135.044 90.8759 134.557 90.1039 133.653C85.3461 128.089 87.6468 104.592 87.9256 101.931C87.9642 101.561 88.1501 101.224 88.4394 101.004C88.7295 100.784 89.0948 100.697 89.4484 100.766C94.5746 101.763 106.317 95.3065 110.41 92.7388C110.866 92.4493 111.446 92.484 111.868 92.8201C122.548 101.328 129.264 101.12 129.324 101.108C130.021 101.085 130.636 101.63 130.681 102.36C130.685 102.43 131.112 109.455 130.947 116.775C130.635 130.581 128.563 133.502 127.032 134.493C126.328 134.951 125.629 135.148 124.936 135.148Z" fill="#1B1529"/>
<path fill-rule="evenodd" clip-rule="evenodd" d="M103.204 81.5122C102.903 78.1329 105.978 76.1637 110.663 76.1672C115.935 76.1711 118.682 77.8434 118.861 80.4516C119.078 83.6162 116.436 85.714 111.495 85.8301C105.583 85.9635 103.478 84.5838 103.204 81.5122Z" fill="#1B1529"/>
<path d="M129.402 103.78C128.701 103.78 127.973 103.67 127.222 103.456C120.517 101.526 113.235 96.9006 111.005 95.4226C106.962 97.7813 93.7248 105.136 88.7798 103.334C82.8716 101.184 83.9769 92.055 84.027 91.6725C84.1216 90.9422 84.7716 90.4262 85.478 90.5248C86.1843 90.6174 86.6805 91.2899 86.5867 92.0202C86.572 92.1363 85.7168 99.3871 89.6375 100.819C92.8666 101.989 104.088 96.4659 110.408 92.704C110.833 92.4493 111.363 92.4667 111.771 92.7505C111.856 92.8083 120.456 98.7376 127.914 100.882C129.343 101.294 130.558 101.143 131.63 100.419C134.792 98.2742 135.665 92.0724 135.674 92.0085C135.772 91.2782 136.425 90.7739 137.13 90.8726C137.835 90.9769 138.328 91.6494 138.232 92.3736C138.191 92.681 137.193 99.8331 133.051 102.644C131.937 103.404 130.716 103.78 129.402 103.78Z" fill="#1B1529"/>
<path d="M95.2682 80.9267C95.2249 80.9267 95.1816 80.921 95.1379 80.9149L83.7801 79.7095C83.0906 79.6343 82.589 78.9966 82.66 78.2837C82.7311 77.5708 83.3458 77.0548 84.0374 77.1244L95.3952 78.3359C96.0847 78.4111 96.5859 79.0488 96.5148 79.7617C96.4488 80.4281 95.9031 80.9267 95.2682 80.9267Z" fill="#D06225"/>
<path d="M83.9075 87.1342C83.2718 87.1342 82.7269 86.6356 82.66 85.9692C82.589 85.2563 83.0906 84.6186 83.7801 84.549L95.1379 83.338C95.8303 83.2623 96.4438 83.784 96.5148 84.4969C96.5859 85.2098 96.0847 85.8475 95.3952 85.9171L84.0374 87.1286C83.9937 87.1342 83.95 87.1342 83.9075 87.1342Z" fill="#D06225"/>
<path d="M127.146 80.9267C126.511 80.9267 125.965 80.4281 125.899 79.7617C125.828 79.0488 126.33 78.4111 127.019 78.3359L138.377 77.1244C139.07 77.0492 139.683 77.5708 139.754 78.2837C139.825 78.9966 139.324 79.6343 138.634 79.7095L127.276 80.915C127.232 80.921 127.189 80.9267 127.146 80.9267Z" fill="#D06225"/>
<path d="M138.507 87.1342C138.464 87.1342 138.421 87.1342 138.377 87.1286L127.019 85.9171C126.33 85.8475 125.828 85.2098 125.899 84.4969C125.97 83.784 126.586 83.2623 127.276 83.338L138.634 84.549C139.324 84.6186 139.825 85.2563 139.754 85.9692C139.688 86.6356 139.142 87.1342 138.507 87.1342Z" fill="#D06225"/>
<path d="M136.457 129.949C135.798 129.949 135.235 129.427 135.173 128.738C135.124 128.187 134.009 115.181 137.249 108.608C137.572 107.948 138.35 107.687 138.985 108.023C139.621 108.359 139.874 109.159 139.55 109.82C136.649 115.708 137.733 128.367 137.745 128.495C137.81 129.225 137.287 129.879 136.577 129.943C136.537 129.949 136.497 129.949 136.457 129.949Z" fill="#1B1529"/>
<path d="M84.3302 133.722C83.6398 133.722 83.0672 133.155 83.0411 132.436C82.6799 122.385 79.0661 116.271 79.0304 116.213C78.6537 115.587 78.8391 114.764 79.4445 114.369C80.05 113.981 80.8463 114.173 81.2231 114.798C81.3866 115.071 85.235 121.585 85.6219 132.337C85.6479 133.073 85.0917 133.694 84.379 133.717C84.363 133.722 84.3466 133.722 84.3302 133.722Z" fill="#1B1529"/>
<path fill-rule="evenodd" clip-rule="evenodd" d="M111.029 105.38C98.5002 101.85 89.2401 108.556 76.5033 98.0886C63.7661 87.6267 50.9615 88.4557 52.1914 70.4509C53.4195 52.4473 52.3726 36.3149 46.7742 29.0235C41.1777 21.7316 32.2635 16.7911 30.5407 11.1087C28.8152 5.42629 22.3026 -1.79259 11.0109 3.01635C-0.280835 7.82353 -0.963655 27.3879 5.08078 35.0966C11.1258 42.8035 26.3894 39.2256 25.7257 49.7113C25.0625 60.195 17.8323 67.6683 25.5177 84.3695C33.2053 101.068 39.8939 92.4723 47.9364 101.734C55.9805 110.996 58.4086 118.38 68.3335 119.401C78.2608 120.415 82.1593 121.933 89.2868 116.219C96.4148 110.504 101.211 105.803 111.029 105.38Z" fill="white"/>
<path d="M18.0342 2.77057C16.002 2.77057 13.8195 3.26324 11.5025 4.2503C7.5884 5.91721 4.69959 9.80864 3.36928 15.2082C1.67569 22.0805 2.81764 30.0912 6.08372 34.2561C8.40968 37.222 12.409 38.3754 16.2761 39.4899C21.7751 41.0763 27.4625 42.7166 27.014 49.7983C26.8077 53.0594 25.9886 56.0584 25.197 58.9583C23.3768 65.6253 21.4942 72.5192 26.6838 83.7957C30.9444 93.0518 34.6035 93.9851 38.84 95.0688C41.8779 95.8456 45.3216 96.7267 48.8968 100.842C50.9759 103.235 52.7019 105.531 54.2252 107.553C58.6749 113.465 61.6151 117.366 68.4613 118.073C69.8362 118.212 71.0972 118.363 72.2673 118.502C79.4756 119.366 82.7656 119.754 88.4956 115.164C89.1738 114.619 89.831 114.086 90.473 113.564C94.6363 110.173 98.2182 107.264 102.885 105.571C101.231 105.525 99.6128 105.571 98.0164 105.612C91.1444 105.803 84.0375 105.988 75.6999 99.1376C71.9881 96.0834 68.1914 93.9733 64.8421 92.1128C56.8686 87.6789 49.982 83.8479 50.9032 70.357C52.2894 50.0443 50.5117 36.0384 45.7627 29.8529C43.4565 26.8477 40.5773 24.2627 37.7927 21.7629C33.8298 18.2059 30.4079 15.1335 29.3085 11.5074C28.5248 8.92651 26.4427 5.56485 22.9496 3.87356C21.4303 3.13805 19.7878 2.77057 18.0342 2.77057ZM78.6284 121.713C76.6434 121.713 74.4999 121.458 71.9705 121.151C70.8134 121.018 69.5667 120.867 68.2061 120.728C60.2579 119.911 56.6962 115.181 52.1872 109.194C50.6904 107.206 48.9943 104.951 46.9753 102.627C43.9308 99.1202 41.1569 98.4073 38.2199 97.6596C33.7552 96.5181 29.1381 95.3413 24.3522 84.9433C18.7456 72.7596 20.8529 65.0415 22.7119 58.2323C23.5023 55.3381 24.249 52.6047 24.4374 49.6244C24.734 44.9336 21.4365 43.7499 15.5821 42.0616C11.5233 40.8914 6.92295 39.5647 4.07789 35.937C0.278102 31.0915 -1.04213 22.2961 0.866737 14.5492C2.40392 8.31215 5.83204 3.77734 10.5193 1.78236C15.4615 -0.322162 20.1387 -0.435757 24.0444 1.45605C27.6553 3.20471 30.5441 6.66316 31.7724 10.7088C32.6531 13.6131 35.9719 16.5929 39.4858 19.747C42.225 22.2068 45.33 24.9947 47.7855 28.1935C53.016 35.0061 54.9315 49.2558 53.4789 70.5448C52.675 82.3177 58.0021 85.2793 66.0652 89.7598C69.51 91.6781 73.4143 93.8459 77.3064 97.0453C84.9095 103.293 91.242 103.125 97.9495 102.946C102.151 102.836 106.497 102.719 111.368 104.087C111.983 104.261 112.383 104.87 112.312 105.525C112.241 106.18 111.719 106.684 111.083 106.713C102.619 107.078 98.1942 110.678 92.0695 115.662C91.4224 116.184 90.761 116.723 90.0778 117.273C85.7458 120.745 82.4852 121.713 78.6284 121.713Z" fill="#1B1529"/>
<path fill-rule="evenodd" clip-rule="evenodd" d="M9.1614 25.9737C5.54999 21.3172 6.84108 16.7615 9.26344 17.1974C11.6864 17.635 16.345 24.0442 16.6354 25.4752C17.9102 31.7505 13.2914 31.2967 9.1614 25.9737Z" fill="white"/>
<path d="M10.1685 25.1385C12.5561 28.2156 14.618 28.9719 15.1892 28.6897C15.4746 28.5506 15.7588 27.6528 15.372 25.75C15.0227 24.4296 10.719 18.8151 9.04164 18.5125C8.9351 18.4916 8.73387 18.458 8.51074 18.8487C7.98264 19.7726 7.96583 22.2979 10.1685 25.1385ZM14.9381 31.404C12.9406 31.404 10.4286 29.7405 8.15474 26.8095C8.15419 26.8095 8.15419 26.8089 8.15419 26.8089C5.29396 23.1209 5.15605 19.4718 6.28737 17.4907C6.99596 16.2509 8.19005 15.6487 9.48505 15.8823C12.4966 16.4266 17.5197 23.3331 17.8992 25.2011C18.7222 29.2513 17.2461 30.6371 16.2931 31.1031C15.8793 31.306 15.4236 31.404 14.9381 31.404Z" fill="#1B1529"/>
<path fill-rule="evenodd" clip-rule="evenodd" d="M21.3406 19.0759C18.44 13.9146 20.373 9.60869 22.7057 10.4126C25.0383 11.2183 26.8278 18.7264 27.5734 19.8589C31.0604 25.1599 24.6571 24.9751 21.3406 19.0759Z" fill="white"/>
<path d="M22.4569 18.4047C24.1617 21.4366 26.5488 22.4578 27.2876 22.3471C27.2686 22.128 27.1475 21.5844 26.5056 20.6095C26.2113 20.1614 25.9422 19.4132 25.4528 18.0187C24.8798 16.3848 23.3567 12.0447 22.2971 11.6784C22.194 11.6431 22.0006 11.577 21.7236 11.9294C21.0677 12.7629 20.6876 15.2569 22.4569 18.4053V18.4047ZM27.2131 25.0098C25.2538 25.0098 22.2674 23.38 20.2246 19.7465C20.2246 19.7465 20.2246 19.7464 20.2246 19.7459C17.9272 15.6585 18.3163 12.0291 19.7206 10.2445C20.5996 9.12764 21.8666 8.71785 23.1139 9.14616C25.1899 9.86371 26.5005 13.1761 27.8802 17.1081C28.1577 17.8987 28.5025 18.8822 28.6432 19.1118C29.8552 20.9532 30.1776 22.481 29.5996 23.6477C29.1847 24.4841 28.3494 24.9802 27.3073 25.0092C27.2764 25.0098 27.2445 25.0098 27.2131 25.0098Z" fill="#1B1529"/>
<path fill-rule="evenodd" clip-rule="evenodd" d="M24.2312 28.2393C25.6013 26.1481 31.2337 28.521 34.5099 32.3406C37.7861 36.1613 38.3994 40.5309 37.4273 45.3026C36.4575 50.0769 37.1386 55.928 35.0817 56.3227C33.0232 56.7178 32.3723 49.8435 33.1975 46.495C34.0205 43.1466 33.9538 41.9347 32.3544 38.675C30.7533 35.4176 21.8088 31.9418 24.2312 28.2393Z" fill="white"/>
<path d="M25.3009 28.9876C24.5452 30.1422 26.5213 31.79 29.1825 33.8244C31.0241 35.2317 32.7637 36.5612 33.5059 38.0705C35.2012 41.5261 35.3688 43.08 34.4488 46.8237C33.7879 49.5062 34.2571 53.6119 34.9225 54.8013C35.2662 54.014 35.4254 51.8779 35.5347 50.4021C35.6598 48.7176 35.8021 46.8097 36.1637 45.0288C37.1459 40.2064 36.3134 36.4563 33.544 33.2256C31.1805 30.472 27.5876 28.6914 25.8525 28.8004C25.5716 28.8195 25.3659 28.8896 25.3009 28.9876ZM35.126 55.0642H35.1322H35.126ZM34.9096 57.6751C34.2868 57.6751 33.6982 57.3968 33.2194 56.8674C31.4367 54.8986 31.2214 49.1084 31.9463 46.1651C32.6706 43.2185 32.6863 42.301 31.2035 39.279C30.7382 38.3331 29.0962 37.0783 27.6476 35.9706C24.6674 33.6928 20.959 30.858 23.1622 27.4917V27.4911C23.5327 26.9254 24.271 26.2322 25.6843 26.1366C28.4576 25.954 32.7575 28.2857 35.4759 31.4549C38.7879 35.318 39.8396 39.938 38.6909 45.5782C38.3635 47.1875 38.2346 48.9259 38.1096 50.6068C37.8467 54.1409 37.6196 57.1934 35.3178 57.6355C35.181 57.662 35.0448 57.6751 34.9096 57.6751Z" fill="#1B1529"/>
<path fill-rule="evenodd" clip-rule="evenodd" d="M66.9096 152.032C62.5633 162.36 41.4979 152.762 40.1267 143.836C38.936 136.081 41.9218 125.585 43.1884 119.742C45.3478 109.791 37.0075 110.712 39.1255 104.256C41.9268 95.7239 48.6476 102.789 48.6476 102.789C48.6476 102.789 45.9659 94.5123 52.8672 92.1302C59.0235 89.9976 60.4106 98.8767 60.4106 98.8767C60.4106 98.8767 62.2106 89.5107 68.4884 91.719C76.5746 94.5706 70.4073 103.154 70.4073 103.154C70.4073 103.154 78.0962 100.795 79.8049 107.009C81.5157 113.228 76.0326 115.72 72.4798 116.925C68.2374 118.363 69.783 123.91 69.923 133.635C69.9856 137.907 70.2644 144.062 66.9096 152.032Z" fill="white"/>
<path d="M66.9094 152.032H66.9152H66.9094ZM43.3954 101.375C43.2134 101.375 43.0343 101.398 42.8602 101.439C41.8196 101.688 40.9742 102.778 40.348 104.684C39.6203 106.904 40.3749 107.774 41.7445 109.344C43.4409 111.298 45.7639 113.97 44.4478 120.032C44.2544 120.925 44.0211 121.928 43.7688 123.006C42.3607 129.045 40.4315 137.31 41.4019 143.628C42.1257 148.34 50.1526 154.101 57.307 155.046C60.3023 155.44 64.1928 155.144 65.7254 151.504C68.8073 144.179 68.7118 138.458 68.6416 134.285L68.6315 133.653C68.6004 131.491 68.4978 129.509 68.407 127.764C68.0845 121.568 67.8512 117.088 72.0776 115.656C77.6204 113.773 79.6205 111.222 78.5627 107.374C78.2238 106.139 77.5931 105.276 76.6353 104.731C74.3043 103.409 70.8091 104.423 70.775 104.435C70.2427 104.597 69.6684 104.389 69.3488 103.919C69.0301 103.45 69.0394 102.818 69.3707 102.36C70.1195 101.311 71.9107 98.0656 71.2009 95.7239C70.828 94.4893 69.8046 93.5969 68.0711 92.9822C66.9203 92.5766 65.9318 92.6345 65.051 93.1561C63.0025 94.3733 61.9202 97.8856 61.6764 99.1376C61.5524 99.7696 60.9856 100.21 60.3852 100.21C59.7612 100.198 59.2352 99.7231 59.1356 99.0854C58.9535 97.9439 58.0739 94.721 56.2244 93.5677C55.3931 93.0518 54.4286 92.9939 53.2765 93.3939C50.9161 94.2111 49.6665 95.8686 49.4555 98.4655C49.2902 100.5 49.8654 102.343 49.8717 102.366C50.0622 102.952 49.8347 103.601 49.3226 103.925C48.8092 104.25 48.1478 104.169 47.7265 103.722C47.0521 103.021 45.0844 101.375 43.3954 101.375ZM59.1545 157.839C58.4582 157.839 57.7329 157.793 56.9812 157.695C49.4134 156.698 39.8457 150.519 38.8512 144.045C37.8006 137.2 39.7992 128.634 41.259 122.38C41.5073 121.313 41.7378 120.328 41.9284 119.453C42.9527 114.729 41.4328 112.984 39.8238 111.13C38.3545 109.443 36.6895 107.525 37.9027 103.827C38.8372 100.981 40.3127 99.3001 42.2884 98.8363C43.9315 98.442 45.5553 98.9985 46.8537 99.7405C46.8348 99.2654 46.8402 98.7611 46.8823 98.2395C47.1808 94.5706 49.1082 92.0202 52.4571 90.8609C54.3487 90.2062 56.0663 90.351 57.5652 91.2899C58.8951 92.1189 59.8205 93.4691 60.4524 94.7849C61.1718 93.3069 62.2352 91.7538 63.7568 90.8496C65.2994 89.928 67.0321 89.8002 68.9048 90.4553C71.4402 91.3538 73.0429 92.8605 73.6682 94.9357C74.3493 97.2018 73.6551 99.6362 72.8672 101.404C74.38 101.317 76.2552 101.468 77.879 102.395C79.4507 103.288 80.5165 104.719 81.0467 106.644C82.5116 111.97 79.7648 115.859 72.8828 118.195C70.7183 118.925 70.6459 121.099 70.9857 127.625C71.0777 129.393 71.1812 131.398 71.2131 133.612L71.2232 134.238C71.2972 138.66 71.399 144.711 68.0934 152.565C68.0929 152.565 68.0929 152.565 68.0929 152.565C66.6567 155.979 63.4562 157.839 59.1545 157.839Z" fill="#1B1529"/>
<path fill-rule="evenodd" clip-rule="evenodd" d="M157.16 153.608C162.224 163.577 182.555 152.42 183.291 143.407C183.931 135.583 180.211 125.341 178.535 119.615C175.679 109.855 184.061 110.139 181.493 103.861C178.096 95.5617 171.893 103.114 171.893 103.114C171.893 103.114 173.982 94.6632 166.931 92.8027C160.64 91.1452 159.885 100.1 159.885 100.1C159.885 100.1 157.427 90.8957 151.323 93.5795C143.459 97.0336 150.217 105.125 150.217 105.125C150.217 105.125 142.382 103.352 141.117 109.681C139.85 116.01 145.494 118.079 149.123 119.012C153.456 120.131 152.307 125.776 152.855 135.485C153.093 139.75 153.251 145.911 157.16 153.608Z" fill="white"/>
<path d="M158.303 152.988C160.088 156.507 163.991 156.5 166.949 155.886C174.018 154.408 181.616 148.056 182.005 143.297C182.526 136.922 180.018 128.825 178.187 122.913C177.858 121.852 177.555 120.873 177.299 119.997C175.558 114.051 177.686 111.211 179.24 109.136C180.495 107.461 181.186 106.539 180.303 104.383C179.543 102.523 178.621 101.497 177.564 101.328C175.752 101.05 173.516 103.201 172.876 103.978C172.487 104.453 171.834 104.586 171.299 104.302C170.765 104.018 170.493 103.386 170.641 102.783C170.711 102.493 172.311 95.5965 166.611 94.095C165.431 93.7821 164.472 93.9155 163.679 94.5011C161.907 95.7991 161.267 99.068 161.17 100.216C161.116 100.859 160.624 101.375 160.001 101.433C159.385 101.497 158.806 101.079 158.64 100.459C158.308 99.2306 156.981 95.8108 154.852 94.7501C153.936 94.298 152.947 94.3154 151.827 94.808C150.14 95.5443 149.181 96.5181 148.898 97.7813C148.357 100.187 150.372 103.27 151.194 104.256C151.557 104.69 151.61 105.316 151.326 105.809C151.041 106.301 150.482 106.551 149.94 106.429C149.906 106.423 146.357 105.658 144.109 107.177C143.197 107.791 142.632 108.695 142.381 109.953C141.598 113.865 143.773 116.265 149.435 117.72C153.75 118.827 153.834 123.313 153.951 129.52C153.984 131.265 154.021 133.247 154.142 135.409L154.177 136.041C154.403 140.208 154.712 145.917 158.303 152.988ZM164.24 158.854C160.465 158.854 157.55 157.248 156.016 154.229C152.164 146.642 151.838 140.602 151.599 136.186L151.565 135.565C151.44 133.351 151.402 131.34 151.369 129.573C151.246 123.035 151.021 120.879 148.811 120.31C141.781 118.502 138.767 114.833 139.852 109.408C140.245 107.449 141.206 105.936 142.711 104.928C144.265 103.884 146.126 103.589 147.639 103.566C146.728 101.862 145.864 99.4853 146.383 97.1727C146.86 95.0575 148.351 93.4287 150.817 92.3506C152.639 91.5508 154.376 91.5508 155.98 92.3506C157.56 93.1387 158.731 94.6054 159.553 96.0251C160.09 94.6632 160.917 93.2491 162.185 92.3215C163.614 91.2725 165.318 91 167.249 91.5103C170.671 92.4084 172.774 94.808 173.331 98.4481C173.409 98.958 173.45 99.4623 173.465 99.9374C174.708 99.1028 176.286 98.4247 177.954 98.6916C179.958 99.0102 181.549 100.575 182.682 103.34C184.153 106.939 182.627 108.974 181.282 110.77C179.807 112.741 178.416 114.595 179.77 119.227C180.023 120.09 180.323 121.052 180.646 122.101C182.543 128.228 185.142 136.615 184.578 143.523C184.044 150.056 174.938 156.935 167.461 158.5C166.332 158.738 165.255 158.854 164.24 158.854Z" fill="#1B1529"/>
</svg>
