<svg width="150" height="129" viewBox="0 0 150 129" fill="none" xmlns="http://www.w3.org/2000/svg">
<g clip-path="url(#clip0_13_1278)">
<path fill-rule="evenodd" clip-rule="evenodd" d="M23.5755 40.7793C23.5755 40.7793 3.74762 39.7948 1.62626 34.9177C-0.659214 29.6616 11.2114 16.6371 22.9579 11.0527C35.1476 5.25343 45.4957 4.45563 45.4957 4.45563L23.5755 40.7793Z" fill="#D06225"/>
<path d="M42.9727 6.10219C39.1909 6.71325 31.755 8.30877 23.5248 12.224C11.6297 17.8819 1.03707 30.2727 2.83137 34.3973C4.02966 37.1583 14.9955 38.9632 22.857 39.4328L42.9727 6.10219ZM23.5761 42.0807C23.5539 42.0807 23.5322 42.0807 23.51 42.0807C20.0627 41.911 2.74875 40.7851 0.421685 35.4327C-2.32988 29.1015 10.6753 15.449 22.3915 9.87604C34.6605 4.03708 44.9624 3.19404 45.3949 3.16009C45.8855 3.11483 46.3539 3.35811 46.612 3.77113C46.8701 4.18416 46.874 4.71035 46.6218 5.12901L24.7015 41.4471C24.4639 41.8431 24.0354 42.0807 23.5761 42.0807Z" fill="#1B1529"/>
<path fill-rule="evenodd" clip-rule="evenodd" d="M126.155 40.7793C126.155 40.7793 145.983 39.7948 148.104 34.9177C150.39 29.6616 138.519 16.6371 126.773 11.0527C114.583 5.25343 104.235 4.45563 104.235 4.45563L126.155 40.7793Z" fill="#D06225"/>
<path d="M106.758 6.10219L126.874 39.4328C134.735 38.9632 145.701 37.1583 146.9 34.3973C148.694 30.2727 138.102 17.8819 126.206 12.224C117.976 8.30877 110.54 6.71325 106.758 6.10219ZM126.155 42.0807C125.695 42.0807 125.268 41.8431 125.029 41.4471L103.109 5.12901C102.856 4.71035 102.861 4.18416 103.119 3.77113C103.377 3.35811 103.847 3.11483 104.336 3.16009C104.769 3.19404 115.07 4.03708 127.34 9.87604C139.056 15.449 152.061 29.1015 149.309 35.4327C146.982 40.7851 129.668 41.911 126.221 42.0807C126.199 42.0807 126.177 42.0807 126.155 42.0807Z" fill="#1B1529"/>
<path fill-rule="evenodd" clip-rule="evenodd" d="M17.6158 127.47H134.004C134.004 127.47 134.575 60.1522 134.009 46.0016C133.324 28.813 123.212 5.81925 100.162 3.26188C70.1008 -0.070616 53.1085 2.23783 42.982 5.32137C32.858 8.39925 17.7212 18.1082 16.87 44.3497C15.9059 74.0876 17.6158 127.47 17.6158 127.47Z" fill="white"/>
<path d="M17.6148 128.777C16.9094 128.777 16.3271 128.222 16.3043 127.515C16.2872 126.978 14.604 73.7481 15.5584 44.3043C16.5049 15.1322 34.7835 6.45291 42.5983 4.07094C56.1979 -0.064979 75.6141 -0.772228 100.308 1.9662C111.086 3.16567 120.166 8.85753 126.566 18.425C131.741 26.165 134.932 36.1965 135.321 45.9507C135.881 59.971 135.323 126.808 135.317 127.487C135.311 128.2 134.724 128.777 134.005 128.777C134.001 128.777 133.997 128.777 133.993 128.777C133.268 128.771 132.686 128.183 132.692 127.464C132.698 126.791 133.256 60.0105 132.699 46.0526C131.968 27.7323 121.429 6.93386 100.017 4.55755C75.6808 1.85874 56.6209 2.53203 43.3671 6.56609C36.0917 8.77835 19.0741 16.8974 18.1818 44.3891C17.2302 73.7481 18.9105 126.898 18.9276 127.43C18.9505 128.149 18.3818 128.754 17.6575 128.777C17.6433 128.777 17.6291 128.777 17.6148 128.777Z" fill="#1B1529"/>
<path fill-rule="evenodd" clip-rule="evenodd" d="M59.3773 92.7811C58.4876 90.1048 57.9431 80.2091 59.3773 76.8089C60.8132 73.4086 61.6936 67.8807 60.6329 64.5484C59.5705 61.2215 57.256 58.647 58.7662 54.6243C60.2773 50.607 58.3038 46.0526 58.3038 46.0526C53.009 45.8205 48.8551 46.3186 44.8363 48.3101C44.8363 48.3101 43.4662 54.4999 44.3354 60.3614C44.9748 64.6672 47.6107 69.0634 45.7756 74.1665C43.9401 79.2756 39.1482 84.2209 42.0445 92.3343C46.2307 92.9114 54.9081 92.7811 59.3773 92.7811Z" fill="#FBCE35"/>
<path d="M59.3765 94.0881C58.8256 94.0881 58.3128 93.7371 58.1312 93.1885C57.15 90.2351 56.5944 80.0339 58.167 76.3052C59.4923 73.165 60.3337 67.9316 59.3816 64.9443C59.1247 64.135 58.7867 63.3772 58.4294 62.5735C57.4012 60.254 56.2359 57.6341 57.5371 54.1715C58.8397 50.7033 57.1145 46.6012 57.097 46.5618C56.8136 45.8998 57.1226 45.136 57.788 44.8529C58.4534 44.5703 59.2226 44.8759 59.5089 45.5319C59.5983 45.7415 61.6718 50.624 59.9961 55.0826C59.0679 57.5493 59.8461 59.3035 60.8307 61.5211C61.2012 62.3528 61.5837 63.213 61.8841 64.158C63.0739 67.8922 62.1038 73.7252 60.5876 77.3126C59.2923 80.3848 59.8068 89.9181 60.6235 92.3737C60.85 93.0582 60.4765 93.794 59.788 94.0202C59.6517 94.0656 59.5128 94.0881 59.3765 94.0881Z" fill="#1B1529"/>
<path d="M42.0446 93.6413C41.5044 93.6413 40.9984 93.3073 40.8075 92.7696C38.4378 86.1329 40.791 81.4822 42.8679 77.3745C43.5089 76.1074 44.1145 74.9133 44.5397 73.7311C45.6897 70.5286 44.8692 67.6431 43.9995 64.5823C43.6256 63.2694 43.2393 61.9115 43.0372 60.5481C42.1432 54.5224 43.497 48.2931 43.5551 48.033C43.7107 47.3256 44.4098 46.8843 45.1179 47.037C45.8256 47.1898 46.2735 47.8857 46.1188 48.5872C46.1055 48.6495 44.8115 54.6243 45.6337 60.1692C45.8111 61.3628 46.1581 62.5849 46.5256 63.8749C47.4239 67.0375 48.4436 70.6249 47.0115 74.6078C46.5325 75.9377 45.8914 77.2048 45.2132 78.5457C43.282 82.3648 41.2856 86.3082 43.2816 91.8985C43.5231 92.5774 43.1658 93.3243 42.4828 93.5674C42.338 93.6128 42.1899 93.6413 42.0446 93.6413Z" fill="#1B1529"/>
<path d="M43.544 49.5831C42.985 49.5831 42.4666 49.2267 42.2917 48.6666C42.0757 47.9821 42.4615 47.2522 43.1538 47.0371C46.7316 45.9283 54.1774 43.6199 60.3534 45.0906C61.0581 45.2548 61.4927 45.9563 61.3244 46.6581C61.1556 47.3596 60.4479 47.7894 59.7423 47.6256C54.2701 46.3242 47.0274 48.5647 43.935 49.5208C43.8051 49.5662 43.6735 49.5831 43.544 49.5831Z" fill="#1B1529"/>
<path fill-rule="evenodd" clip-rule="evenodd" d="M91.4585 92.7811C92.3478 90.1048 94.5205 83.5644 94.8013 79.8866C95.1752 75.0211 90.3342 71.0323 89.6414 67.6036C88.5662 62.268 92.0966 59.4053 90.5855 55.3881C89.0748 51.3653 93.0696 46.0695 93.0696 46.0695C96.6897 46.3186 101.618 46.7599 105.999 48.3101C105.999 48.3101 103.422 51.586 103.688 53.9339C103.912 55.9028 106.676 60.3499 106.278 63.0262C105.64 67.332 104.352 69.4198 106.187 74.5289C107.093 77.0465 109.182 80.0114 109.394 83.7172C109.586 87.0665 108.89 89.2901 107.614 92.7926C103.428 93.3697 95.9273 92.7811 91.4585 92.7811Z" fill="#FBCE35"/>
<path d="M107.614 94.0996C107.466 94.0996 107.315 94.0711 107.168 94.0202C106.486 93.7771 106.134 93.0302 106.38 92.3513C107.669 88.8093 108.257 86.8119 108.085 83.7906C107.951 81.4597 106.949 79.3605 106.066 77.5048C105.645 76.6222 105.247 75.7905 104.951 74.9643C103.411 70.6814 103.915 68.2486 104.499 65.431C104.666 64.6218 104.84 63.7846 104.98 62.8396C105.172 61.544 104.264 59.3375 103.536 57.5607C102.975 56.1973 102.491 55.0147 102.384 54.0756C102.067 51.286 104.667 47.8857 104.965 47.5068C105.411 46.9407 106.235 46.8389 106.807 47.2861C107.378 47.7275 107.479 48.5422 107.033 49.1134C106.165 50.2226 104.843 52.4686 104.992 53.7871C105.059 54.3642 105.52 55.4899 105.966 56.5763C106.86 58.7489 107.873 61.2156 107.576 63.2185C107.425 64.2369 107.236 65.148 107.07 65.9513C106.524 68.5881 106.13 70.4947 107.423 74.0876C107.676 74.7945 108.046 75.5698 108.438 76.3901C109.424 78.4609 110.541 80.8032 110.705 83.6378C110.912 87.2647 110.141 89.6864 108.848 93.2394C108.655 93.7656 108.151 94.0996 107.614 94.0996Z" fill="#1B1529"/>
<path d="M91.4589 94.0881C91.3226 94.0881 91.1841 94.0656 91.0474 94.0202C90.3589 93.794 89.9854 93.0582 90.2119 92.3738C90.3341 92.0059 90.485 91.5705 90.6546 91.0723C91.6423 88.2037 93.4799 82.8515 93.4888 79.8811C93.497 77.2107 92.0743 75.0097 90.6974 72.8765C89.5828 71.1511 88.5307 69.5217 88.3367 67.7449C88.0662 65.2553 88.6076 63.1735 89.0846 61.3344C89.6196 59.2696 90.0418 57.6401 89.3581 55.8464C87.8478 51.886 91.5504 46.0017 91.9777 45.3452C92.37 44.7401 93.1824 44.5644 93.7905 44.9548C94.3995 45.3452 94.5756 46.1489 94.1841 46.754C93.2884 48.1403 90.9299 52.6099 91.8128 54.9243C92.791 57.4928 92.1982 59.7728 91.6256 61.9794C91.1841 63.6882 90.7273 65.448 90.9461 67.4619C91.0734 68.6331 91.9636 70.008 92.9068 71.4677C94.4145 73.8045 96.1243 76.4469 96.1136 79.8866C96.1034 83.2873 94.2474 88.6905 93.1384 91.9155C92.9722 92.4022 92.8247 92.832 92.7051 93.1885C92.5226 93.7372 92.0098 94.0881 91.4589 94.0881Z" fill="#1B1529"/>
<path d="M107.292 49.5831C107.189 49.5831 107.084 49.5717 106.979 49.5437C101.809 48.2931 96.2581 47.4899 90.9261 47.2183C90.2021 47.1843 89.6449 46.5733 89.6816 45.8544C89.7175 45.136 90.3282 44.5814 91.0581 44.6154C96.6312 44.8984 102.198 45.7017 107.603 47.0146C108.306 47.1843 108.738 47.8913 108.566 48.5872C108.419 49.1813 107.883 49.5831 107.292 49.5831Z" fill="#1B1529"/>
<path d="M48.2312 35.2007C47.3449 35.2007 46.7774 35.0932 46.7176 35.082C46.0069 34.9405 45.5466 34.2502 45.6889 33.5486C45.8308 32.8414 46.518 32.3888 47.227 32.5246C47.2945 32.5359 50.1748 33.0338 53.0235 31.1667C54.5714 30.1483 55.4394 28.0492 55.0428 26.2782C54.8855 25.5766 55.3317 24.8807 56.0389 24.7223C56.747 24.5696 57.4475 25.0109 57.6047 25.7124C58.2346 28.5301 56.9163 31.7381 54.4684 33.3393C52.0902 34.9008 49.7146 35.2007 48.2312 35.2007Z" fill="#1B1529"/>
<path d="M101.241 35.2007C99.7577 35.2007 97.3825 34.9008 95.0035 33.3393C92.556 31.7381 91.2376 28.5301 91.868 25.7124C92.0252 25.0109 92.7252 24.5696 93.4338 24.7223C94.1415 24.8807 94.5876 25.5766 94.4295 26.2782C94.0329 28.0492 94.9009 30.1483 96.4492 31.1667C99.3163 33.0451 102.217 32.5302 102.247 32.5246C102.956 32.3888 103.643 32.8527 103.781 33.5543C103.919 34.2615 103.463 34.9405 102.755 35.082C102.695 35.0932 102.128 35.2007 101.241 35.2007Z" fill="#1B1529"/>
<path fill-rule="evenodd" clip-rule="evenodd" d="M27.2656 63.2584C26.9869 57.7869 32.9357 54.6358 37.5636 56.1634C42.1909 57.691 43.6962 61.0459 42.302 65.7701C40.4792 71.943 27.7687 73.205 27.2656 63.2584Z" fill="#FE7D7B"/>
<path fill-rule="evenodd" clip-rule="evenodd" d="M108.044 63.2584C107.765 57.7869 113.714 54.6358 118.341 56.1634C122.969 57.691 124.474 61.0459 123.08 65.7701C121.257 71.943 108.547 73.205 108.044 63.2584Z" fill="#FE7D7B"/>
<path fill-rule="evenodd" clip-rule="evenodd" d="M67.4641 59.8467C67.1581 56.5423 70.2838 54.6243 75.0462 54.6243C80.4047 54.6298 83.1966 56.2593 83.3791 58.8113C83.5996 61.9005 80.9128 63.9429 75.8919 64.0562C69.8829 64.1919 67.7432 62.8396 67.4641 59.8467Z" fill="#1B1529"/>
<path d="M70.994 74.2344C70.8274 74.2344 70.6581 74.2064 70.4949 74.1385C69.8248 73.8669 69.5051 73.1031 69.7812 72.4352L74.2043 61.7757C74.3966 61.3174 74.8389 61.0009 75.3427 60.9724C75.8487 60.95 76.3214 61.2046 76.5654 61.6399L82.3415 71.9884C82.6932 72.6219 82.4641 73.4142 81.8299 73.7651C81.1962 74.1101 80.3974 73.8839 80.0462 73.2559L75.5923 65.2723L72.2081 73.4311C71.9996 73.9348 71.5103 74.2344 70.994 74.2344Z" fill="#1B1529"/>
<path d="M59.3983 60.2031C59.3552 60.2031 59.3111 60.1972 59.2667 60.1917L47.7227 59.015C47.0218 58.9411 46.5116 58.3186 46.5842 57.6227C46.656 56.9268 47.2821 56.4176 47.9834 56.4914L59.5278 57.6741C60.2287 57.7475 60.7385 58.3696 60.6663 59.0655C60.5987 59.7164 60.0445 60.2031 59.3983 60.2031Z" fill="#D06225"/>
<path d="M47.8517 66.2627C47.2056 66.2627 46.6513 65.776 46.5842 65.1255C46.5116 64.4296 47.0218 63.8071 47.7227 63.7337L59.2667 62.5565C59.9663 62.4831 60.5945 62.9923 60.6663 63.6883C60.7385 64.3842 60.2287 65.0067 59.5278 65.0746L47.9834 66.2568C47.9389 66.2627 47.8953 66.2627 47.8517 66.2627Z" fill="#D06225"/>
<path d="M91.7991 60.2031C91.153 60.2031 90.5991 59.7164 90.532 59.0655C90.4598 58.3696 90.9692 57.7475 91.67 57.6741L103.214 56.4914C103.915 56.4176 104.542 56.9268 104.614 57.6227C104.686 58.3186 104.177 58.9411 103.476 59.015L91.9316 60.1917C91.8871 60.1972 91.8431 60.2031 91.7991 60.2031Z" fill="#D06225"/>
<path d="M103.347 66.2627C103.303 66.2627 103.259 66.2627 103.214 66.2568L91.67 65.0746C90.9692 65.0067 90.4598 64.3842 90.532 63.6883C90.6038 62.9923 91.2265 62.4831 91.9316 62.5565L103.476 63.7337C104.177 63.8071 104.686 64.4296 104.614 65.1255C104.547 65.776 103.993 66.2627 103.347 66.2627Z" fill="#D06225"/>
<path fill-rule="evenodd" clip-rule="evenodd" d="M24.1578 127.475C27.866 127.894 49.0448 127.64 52.2919 127.475C54.7466 120.46 57.8448 108.222 59.4786 101.692C61.679 92.9114 70.0295 96.5438 71.0235 89.969C72.338 81.2674 63.0837 84.2888 63.0837 84.2888C63.0837 84.2888 69.2337 78.348 64.0748 73.0861C59.4722 68.3899 54.2201 75.451 54.2201 75.451C54.2201 75.451 56.8137 66.4944 50.1457 65.5099C41.5566 64.2428 43.2611 74.5399 43.2611 74.5399C43.2611 74.5399 37.3795 68.9331 33.0336 73.5385C28.6872 78.1443 32.5185 82.84 35.1846 85.5278C38.3692 88.7414 35.5504 96.374 32.5071 105.251C30.8364 110.123 27.6233 117.506 24.1578 127.475Z" fill="white"/>
<path d="M52.2919 128.777C52.1487 128.777 52.0034 128.754 51.8611 128.703C51.1765 128.465 50.8141 127.724 51.0517 127.045C53.6103 119.735 56.9487 106.4 58.2051 101.381C59.5346 96.074 62.935 94.7106 65.6671 93.6128C68.1004 92.6339 69.3863 92.0228 69.7252 89.7768C70.0201 87.8248 69.7474 86.4839 68.9167 85.788C67.4906 84.5943 64.4479 85.2164 63.4936 85.5278C62.9111 85.7145 62.2774 85.4824 61.9611 84.9618C61.6449 84.4415 61.7312 83.7795 62.1692 83.3552C62.3782 83.1515 67.3043 78.2516 63.1346 73.9968C62.2722 73.1141 61.3773 72.7237 60.3915 72.7861C58.2021 72.9274 55.9556 75.3207 55.2748 76.2262C54.8957 76.7355 54.2068 76.8993 53.638 76.6222C53.0701 76.3391 52.7833 75.7001 52.959 75.0945C53.3013 73.8949 53.9056 70.3474 52.6034 68.3445C52.0427 67.4848 51.1761 66.9811 49.9534 66.7999C48.1115 66.5228 46.7833 66.8283 45.8919 67.7279C44.1944 69.4308 44.3521 73.0747 44.556 74.3307C44.6457 74.8853 44.3692 75.434 43.8697 75.6941C43.3697 75.9547 42.759 75.8698 42.3522 75.4794C42.3271 75.4565 39.6342 72.9558 36.9146 73.0293C35.8086 73.0632 34.8519 73.5215 33.9909 74.4325C31.3026 77.2786 31.959 80.4187 36.1197 84.6168C39.7362 88.2606 37.2673 95.4405 34.1408 104.532L33.7494 105.67C33.0325 107.763 32.0314 110.32 30.8729 113.274C29.3197 117.246 27.387 122.18 25.3983 127.9C25.1619 128.579 24.4154 128.941 23.73 128.703C23.045 128.471 22.681 127.73 22.9174 127.045C24.9226 121.28 26.8656 116.318 28.4268 112.335C29.5744 109.404 30.5659 106.869 31.265 104.832L31.657 103.69C34.265 96.1079 36.7282 88.9451 34.2496 86.4444C29.0838 81.2335 28.3527 76.5937 32.0764 72.6503C33.4245 71.219 35.0325 70.4722 36.8542 70.4268C38.7345 70.3703 40.5026 71.1112 41.8274 71.8865C41.9123 69.9854 42.3824 67.5527 44.0171 65.9003C45.5184 64.3896 47.6449 63.824 50.3389 64.2199C52.3282 64.5144 53.8338 65.431 54.8132 66.9416C55.7791 68.4294 56.0406 70.2685 56.0239 71.8865C57.1885 71.0323 58.6325 70.291 60.2081 70.1836C61.9812 70.0648 63.6017 70.7378 65.015 72.1806C67.5184 74.7326 68.1098 77.8387 66.7265 81.1596C66.5312 81.6294 66.3081 82.0707 66.0769 82.4726C67.5829 82.4272 69.2996 82.6987 70.6098 83.7965C72.1833 85.1205 72.7594 87.2591 72.3209 90.1616C71.7436 93.9862 69.038 95.0726 66.6513 96.0286C64.135 97.036 61.7586 97.992 60.7521 102.009C59.4876 107.061 56.1286 120.477 53.5312 127.9C53.3432 128.437 52.8346 128.777 52.2919 128.777Z" fill="#1B1529"/>
<path fill-rule="evenodd" clip-rule="evenodd" d="M130.046 127.475C126.338 127.894 105.159 127.64 101.912 127.475C99.4576 120.46 96.3589 108.222 94.7247 101.692C92.5247 92.9114 84.1739 96.5438 83.1807 89.969C81.8662 81.2674 91.1196 84.2888 91.1196 84.2888C91.1196 84.2888 84.97 78.348 90.1294 73.0861C94.7311 68.3899 99.9837 75.451 99.9837 75.451C99.9837 75.451 97.3906 66.4944 104.058 65.5099C112.647 64.2428 110.943 74.5399 110.943 74.5399C110.943 74.5399 116.825 68.9331 121.17 73.5385C125.517 78.1443 121.685 82.84 119.019 85.5278C115.834 88.7414 118.654 96.374 121.697 105.251C123.367 110.123 126.58 117.506 130.046 127.475Z" fill="white"/>
<path d="M101.912 128.777C101.369 128.777 100.861 128.437 100.672 127.9C98.0752 120.477 94.7162 107.061 93.4513 102.009C92.4449 97.992 90.0688 97.036 87.5526 96.0286C85.1658 95.0726 82.4603 93.9862 81.8825 90.1616C81.4445 87.2591 82.0201 85.1205 83.5945 83.7965C84.903 82.6987 86.6192 82.4272 88.1265 82.4726C87.8953 82.0707 87.6722 81.6294 87.4769 81.1596C86.0936 77.8387 86.6855 74.7326 89.1885 72.1806C90.6021 70.7378 92.2235 70.0648 93.9962 70.1836C95.5714 70.291 97.015 71.0323 98.1795 71.8865C98.1628 70.2685 98.4244 68.4294 99.3902 66.9416C100.37 65.431 101.875 64.5144 103.865 64.2199C106.557 63.824 108.685 64.3896 110.186 65.9003C111.822 67.5527 112.291 69.9854 112.376 71.8865C113.701 71.1112 115.472 70.3644 117.349 70.4268C119.171 70.4722 120.779 71.219 122.128 72.6503C125.851 76.5937 125.12 81.2335 119.954 86.4444C117.475 88.9451 119.938 96.1079 122.547 103.69L122.939 104.832C123.638 106.869 124.629 109.404 125.777 112.335C127.338 116.318 129.281 121.28 131.286 127.045C131.523 127.73 131.159 128.471 130.474 128.703C129.788 128.941 129.041 128.579 128.805 127.9C126.817 122.18 124.884 117.246 123.33 113.274C122.172 110.32 121.171 107.763 120.454 105.676L120.063 104.532C116.937 95.4405 114.467 88.2606 118.084 84.6168C122.244 80.4187 122.901 77.2786 120.212 74.4325C119.352 73.5215 118.395 73.0632 117.289 73.0293C114.551 72.9673 111.877 75.4565 111.85 75.4849C111.441 75.8698 110.83 75.9547 110.33 75.6941C109.832 75.434 109.557 74.8853 109.648 74.3307C109.852 73.0747 110.01 69.4308 108.312 67.7279C107.42 66.8283 106.092 66.5228 104.25 66.7999C103.027 66.9811 102.161 67.4848 101.6 68.3445C100.298 70.3474 100.903 73.8949 101.246 75.0945C101.419 75.7001 101.131 76.3451 100.562 76.6222C99.9927 76.8993 99.3047 76.7355 98.9282 76.2262C98.2483 75.3207 96.0017 72.9274 93.8124 72.7861C92.8304 72.7237 91.9316 73.1141 91.0697 73.9968C86.8992 78.2516 91.8252 83.1515 92.0372 83.3552C92.4718 83.7795 92.5568 84.447 92.2393 84.9618C91.9227 85.4824 91.2893 85.7145 90.7098 85.5278C89.6833 85.1939 86.7043 84.5998 85.2838 85.7935C84.4551 86.4894 84.1842 87.8303 84.4782 89.7768C84.8175 92.0228 86.103 92.6339 88.5363 93.6128C91.2688 94.7106 94.6697 96.074 95.9983 101.381C97.2551 106.4 100.593 119.735 103.152 127.045C103.39 127.724 103.027 128.465 102.342 128.703C102.2 128.754 102.055 128.777 101.912 128.777Z" fill="#1B1529"/>
</g>
<defs>
<clipPath id="clip0_13_1278">
<rect width="150" height="129" fill="white"/>
</clipPath>
</defs>
</svg>
