<svg width="115" height="28" viewBox="0 0 115 28" fill="none" xmlns="http://www.w3.org/2000/svg">
<path d="M39.2734 20L36.5234 11.0391H36.4531C36.4635 11.2526 36.4792 11.5755 36.5 12.0078C36.526 12.4349 36.5495 12.8906 36.5703 13.375C36.5911 13.8594 36.6016 14.2969 36.6016 14.6875V20H34.4375V8.57812H37.7344L40.4375 17.3125H40.4844L43.3516 8.57812H46.6484V20H44.3906V14.5938C44.3906 14.2344 44.3958 13.8203 44.4062 13.3516C44.4219 12.8828 44.4401 12.4375 44.4609 12.0156C44.4818 11.5885 44.4974 11.2682 44.5078 11.0547H44.4375L41.4922 20H39.2734ZM52.9453 11.1016C53.7526 11.1016 54.4479 11.2578 55.0312 11.5703C55.6146 11.8776 56.0651 12.3255 56.3828 12.9141C56.7005 13.5026 56.8594 14.2214 56.8594 15.0703V16.2266H51.2266C51.2526 16.8984 51.4531 17.4271 51.8281 17.8125C52.2083 18.1927 52.7344 18.3828 53.4062 18.3828C53.9635 18.3828 54.474 18.3255 54.9375 18.2109C55.401 18.0964 55.8776 17.9245 56.3672 17.6953V19.5391C55.9349 19.7526 55.4818 19.9089 55.0078 20.0078C54.5391 20.1068 53.9688 20.1562 53.2969 20.1562C52.4219 20.1562 51.6458 19.9948 50.9688 19.6719C50.2969 19.349 49.7682 18.8568 49.3828 18.1953C49.0026 17.5339 48.8125 16.7005 48.8125 15.6953C48.8125 14.6745 48.9844 13.8255 49.3281 13.1484C49.6771 12.4661 50.1615 11.9557 50.7812 11.6172C51.401 11.2734 52.1224 11.1016 52.9453 11.1016ZM52.9609 12.7969C52.4974 12.7969 52.112 12.9453 51.8047 13.2422C51.5026 13.5391 51.3281 14.0052 51.2812 14.6406H54.625C54.6198 14.2865 54.5547 13.9714 54.4297 13.6953C54.3099 13.4193 54.1276 13.2005 53.8828 13.0391C53.6432 12.8776 53.3359 12.7969 52.9609 12.7969ZM66.7344 15.6172C66.7344 16.3464 66.6354 16.9922 66.4375 17.5547C66.2448 18.1172 65.9609 18.5938 65.5859 18.9844C65.2161 19.3698 64.7682 19.6615 64.2422 19.8594C63.7214 20.0573 63.1328 20.1562 62.4766 20.1562C61.862 20.1562 61.2969 20.0573 60.7812 19.8594C60.2708 19.6615 59.8255 19.3698 59.4453 18.9844C59.0703 18.5938 58.7786 18.1172 58.5703 17.5547C58.3672 16.9922 58.2656 16.3464 58.2656 15.6172C58.2656 14.6484 58.4375 13.8281 58.7812 13.1562C59.125 12.4844 59.6146 11.974 60.25 11.625C60.8854 11.276 61.6432 11.1016 62.5234 11.1016C63.3411 11.1016 64.0651 11.276 64.6953 11.625C65.3307 11.974 65.8281 12.4844 66.1875 13.1562C66.5521 13.8281 66.7344 14.6484 66.7344 15.6172ZM60.6953 15.6172C60.6953 16.1901 60.7578 16.6719 60.8828 17.0625C61.0078 17.4531 61.2031 17.7474 61.4688 17.9453C61.7344 18.1432 62.0807 18.2422 62.5078 18.2422C62.9297 18.2422 63.2708 18.1432 63.5312 17.9453C63.7969 17.7474 63.9896 17.4531 64.1094 17.0625C64.2344 16.6719 64.2969 16.1901 64.2969 15.6172C64.2969 15.0391 64.2344 14.5599 64.1094 14.1797C63.9896 13.7943 63.7969 13.5052 63.5312 13.3125C63.2656 13.1198 62.9193 13.0234 62.4922 13.0234C61.862 13.0234 61.4036 13.2396 61.1172 13.6719C60.8359 14.1042 60.6953 14.7526 60.6953 15.6172ZM75.8828 20L75.2109 16.9453C75.1745 16.763 75.1146 16.4948 75.0312 16.1406C74.9479 15.7812 74.8568 15.3984 74.7578 14.9922C74.6641 14.5807 74.5755 14.2005 74.4922 13.8516C74.4141 13.5026 74.3568 13.2474 74.3203 13.0859H74.25C74.2135 13.2474 74.1562 13.5026 74.0781 13.8516C74 14.2005 73.9115 14.5807 73.8125 14.9922C73.7188 15.4036 73.6302 15.7917 73.5469 16.1562C73.4635 16.5156 73.401 16.7891 73.3594 16.9766L72.6562 20H70.0938L67.6094 11.2656H69.9844L70.9922 15.1328C71.0599 15.4036 71.125 15.7266 71.1875 16.1016C71.25 16.4714 71.3047 16.8307 71.3516 17.1797C71.4036 17.5234 71.4427 17.7969 71.4688 18H71.5312C71.5417 17.849 71.5625 17.6484 71.5938 17.3984C71.6302 17.1484 71.6693 16.8906 71.7109 16.625C71.7578 16.3542 71.7995 16.112 71.8359 15.8984C71.8776 15.6797 71.9089 15.5312 71.9297 15.4531L73.0078 11.2656H75.6328L76.6562 15.4531C76.6927 15.6042 76.7396 15.8438 76.7969 16.1719C76.8594 16.5 76.9141 16.8385 76.9609 17.1875C77.0078 17.5312 77.0339 17.8021 77.0391 18H77.1016C77.1224 17.8229 77.1589 17.5599 77.2109 17.2109C77.263 16.862 77.3229 16.4974 77.3906 16.1172C77.4635 15.7318 77.5365 15.4036 77.6094 15.1328L78.6562 11.2656H80.9922L78.4766 20H75.8828Z" fill="#FE9D97"/>
<path d="M87 20H84.5781V10.5938H81.4766V8.57812H90.1016V10.5938H87V20ZM95.25 11.0859C96.4219 11.0859 97.3203 11.3411 97.9453 11.8516C98.5703 12.362 98.8828 13.138 98.8828 14.1797V20H97.2188L96.7578 18.8125H96.6953C96.4453 19.125 96.1901 19.3802 95.9297 19.5781C95.6693 19.776 95.3698 19.9219 95.0312 20.0156C94.6927 20.1094 94.2812 20.1562 93.7969 20.1562C93.2812 20.1562 92.8177 20.0573 92.4062 19.8594C92 19.6615 91.6797 19.3594 91.4453 18.9531C91.2109 18.5417 91.0938 18.0208 91.0938 17.3906C91.0938 16.4635 91.4193 15.7812 92.0703 15.3438C92.7214 14.901 93.6979 14.6562 95 14.6094L96.5156 14.5625V14.1797C96.5156 13.7214 96.3958 13.3854 96.1562 13.1719C95.9167 12.9583 95.5833 12.8516 95.1562 12.8516C94.7344 12.8516 94.3203 12.9115 93.9141 13.0312C93.5078 13.151 93.1016 13.3021 92.6953 13.4844L91.9062 11.875C92.3698 11.6302 92.888 11.4375 93.4609 11.2969C94.0391 11.1562 94.6354 11.0859 95.25 11.0859ZM96.5156 15.9531L95.5938 15.9844C94.8229 16.0052 94.2865 16.1432 93.9844 16.3984C93.6875 16.6536 93.5391 16.9896 93.5391 17.4062C93.5391 17.7708 93.6458 18.0312 93.8594 18.1875C94.0729 18.3385 94.3516 18.4141 94.6953 18.4141C95.2057 18.4141 95.6354 18.263 95.9844 17.9609C96.3385 17.6589 96.5156 17.2292 96.5156 16.6719V15.9531ZM103.727 20H101.344V7.84375H103.727V20ZM108.617 7.84375V13.2812C108.617 13.6094 108.604 13.9375 108.578 14.2656C108.552 14.5938 108.523 14.9219 108.492 15.25H108.523C108.685 15.0208 108.849 14.7943 109.016 14.5703C109.188 14.3464 109.37 14.1302 109.562 13.9219L112.008 11.2656H114.695L111.227 15.0547L114.906 20H112.156L109.641 16.4609L108.617 17.2812V20H106.234V7.84375H108.617Z" fill="#E3AAA5"/>
<path d="M87 20H84.5781V10.5938H81.4766V8.57812H90.1016V10.5938H87V20ZM95.25 11.0859C96.4219 11.0859 97.3203 11.3411 97.9453 11.8516C98.5703 12.362 98.8828 13.138 98.8828 14.1797V20H97.2188L96.7578 18.8125H96.6953C96.4453 19.125 96.1901 19.3802 95.9297 19.5781C95.6693 19.776 95.3698 19.9219 95.0312 20.0156C94.6927 20.1094 94.2812 20.1562 93.7969 20.1562C93.2812 20.1562 92.8177 20.0573 92.4062 19.8594C92 19.6615 91.6797 19.3594 91.4453 18.9531C91.2109 18.5417 91.0938 18.0208 91.0938 17.3906C91.0938 16.4635 91.4193 15.7812 92.0703 15.3438C92.7214 14.901 93.6979 14.6562 95 14.6094L96.5156 14.5625V14.1797C96.5156 13.7214 96.3958 13.3854 96.1562 13.1719C95.9167 12.9583 95.5833 12.8516 95.1562 12.8516C94.7344 12.8516 94.3203 12.9115 93.9141 13.0312C93.5078 13.151 93.1016 13.3021 92.6953 13.4844L91.9062 11.875C92.3698 11.6302 92.888 11.4375 93.4609 11.2969C94.0391 11.1562 94.6354 11.0859 95.25 11.0859ZM96.5156 15.9531L95.5938 15.9844C94.8229 16.0052 94.2865 16.1432 93.9844 16.3984C93.6875 16.6536 93.5391 16.9896 93.5391 17.4062C93.5391 17.7708 93.6458 18.0312 93.8594 18.1875C94.0729 18.3385 94.3516 18.4141 94.6953 18.4141C95.2057 18.4141 95.6354 18.263 95.9844 17.9609C96.3385 17.6589 96.5156 17.2292 96.5156 16.6719V15.9531ZM103.727 20H101.344V7.84375H103.727V20ZM108.617 7.84375V13.2812C108.617 13.6094 108.604 13.9375 108.578 14.2656C108.552 14.5938 108.523 14.9219 108.492 15.25H108.523C108.685 15.0208 108.849 14.7943 109.016 14.5703C109.188 14.3464 109.37 14.1302 109.562 13.9219L112.008 11.2656H114.695L111.227 15.0547L114.906 20H112.156L109.641 16.4609L108.617 17.2812V20H106.234V7.84375H108.617Z" fill="#54B8B5"/>
<g clip-path="url(#clip0_10_527)">
<path d="M18.2811 19.2686C19.6488 21.6992 18.1351 24.4325 15.4623 24.4079C14.5917 24.3999 13.817 24.0756 13.1807 23.4738C12.2886 22.6302 11.2668 22.3764 10.0646 22.6364C8.22805 23.0335 6.51838 22.0295 6.06173 20.3411C5.56381 18.5 6.49011 16.8137 8.36436 16.2061C9.55335 15.8207 10.3109 15.0371 10.6645 13.8545C11.161 12.1938 12.8526 11.1828 14.513 11.5665C16.2571 11.9696 17.4757 13.6395 17.0889 15.3382C16.7579 16.7919 17.0408 17.976 18.084 19.0072C18.1513 19.0737 18.2008 19.1582 18.2811 19.2686Z" fill="#FE9D97"/>
<path d="M24.7962 17.79C23.898 18.9985 22.6128 19.4556 21.3592 19.0459C20.0797 18.6277 19.263 17.509 19.2952 16.1361C19.3239 14.9075 19.8887 13.9635 21.0163 13.4514C22.1587 12.9326 23.2675 13.0955 24.2238 13.911C25.1465 14.6978 25.4642 15.7103 25.141 16.8982C25.0612 17.1913 25.0151 17.4985 24.7962 17.79Z" fill="#FE9D97"/>
<path d="M16.6982 9.86572C16.0122 7.70349 17.2659 5.76818 19.3835 5.72967C20.5993 5.70756 21.5886 6.22921 22.1394 7.34414C22.7032 8.4852 22.5993 9.61902 21.7778 10.6147C20.9893 11.5704 19.9658 11.884 18.748 11.5926C17.7835 11.3617 17.1254 10.7884 16.6982 9.86572Z" fill="#FE9D97"/>
<path d="M8.82915 11.5594C8.82475 13.3758 7.68885 14.66 6.03401 14.7705C4.49619 14.8732 3.1376 13.7939 2.89316 12.2752C2.62539 10.6117 3.73771 9.06163 5.37754 8.81317C7.11404 8.55006 8.59785 9.7115 8.82915 11.5594Z" fill="#FE9D97"/>
<path d="M10.6659 9.39562C8.43131 8.19431 8.53193 5.19819 10.5557 4.07743C11.7026 3.44226 13.2364 3.67106 14.153 4.61317C15.1028 5.58929 15.2772 7.08697 14.5785 8.26514C13.9088 9.39446 12.5628 9.9292 11.2605 9.58123C11.076 9.53191 10.8941 9.47243 10.6659 9.39562Z" fill="#FE9D97"/>
<circle cx="14" cy="14" r="13.3" stroke="#54B8B5" stroke-width="1.4"/>
</g>
<defs>
<clipPath id="clip0_10_527">
<rect width="28" height="28" fill="white"/>
</clipPath>
</defs>
</svg>
